/* XPM */
static char *_530015766718[] = {
/* columns rows colors chars-per-pixel */
"16 16 87 1 ",
"  c black",
". c #000200",
"X c #040301",
"o c #060606",
"O c #090702",
"+ c #0A0A09",
"@ c #250000",
"# c #340000",
"$ c #2D3513",
"% c #2E3514",
"& c #373510",
"* c #373511",
"= c #011E3A",
"- c #122036",
"; c gray19",
": c gray21",
"> c #3C3C3C",
", c #3E3E3E",
"< c #720702",
"1 c #5B3D0F",
"2 c #443A11",
"3 c #443A12",
"4 c #653C09",
"5 c #653D0B",
"6 c #7F2F29",
"7 c #3A463F",
"8 c #7D4614",
"9 c #1A2640",
"0 c #27384F",
"q c #34334B",
"w c #002C69",
"e c #002F7C",
"r c #33445A",
"t c #11557F",
"y c gray25",
"u c #544646",
"i c #4A5550",
"p c #565656",
"a c gray35",
"s c #5F5F5F",
"d c #614A4A",
"f c #606060",
"g c #666664",
"h c #676767",
"j c #767676",
"k c #797979",
"l c #7B7F7E",
"z c gray49",
"x c gray50",
"c c #814611",
"v c #A36F21",
"b c #A37020",
"n c #807272",
"m c #AFA639",
"M c #B1A536",
"N c #DC9A0A",
"B c #D29310",
"V c #D9B239",
"C c #FFE33B",
"Z c #FFE53E",
"A c #80807E",
"S c #1563A9",
"D c #2B71B0",
"F c #4A5F89",
"G c #4C6985",
"H c #7F8685",
"J c #4683B3",
"K c #3FA2F2",
"L c #469CDD",
"P c gray51",
"I c #848482",
"U c #858587",
"Y c gray53",
"T c #878789",
"R c #939493",
"E c gray60",
"W c #A4A4A3",
"Q c #A9ABAB",
"! c #C8CACB",
"~ c #FEF8EC",
"^ c #E9EBFA",
"/ c gray94",
"( c #FFFCF1",
") c #F3F5FF",
"_ c #F8F8F8",
"` c white",
"' c None",
/* pixels */
"''''''''''''''''",
"'''''''kx'''''''",
"'''''a````j'''''",
"'''''_Uy,h/y''''",
"''''Exosp:,P''''",
"''''UW+as;gT''''",
"'''''^!APQ)'''''",
"'''%.7~``(i.$'''",
"''&VmNqFGrBMV&''",
"'O2bZcewtS8Cv2O'",
"'X'15'=DJ''51'X'",
"'''''''KL'''''''",
"''''''-90'''''''",
"''''''#6<@''''''",
"'''''luRndH'''''",
"''''''''''''''''"
};
