/* XPM */
static char *_530016857579[] = {
/* columns rows colors chars-per-pixel */
"64 64 215 2 ",
"   c #000000",
".  c #0B0402",
"X  c #02030A",
"o  c #0E0D0D",
"O  c #070A09",
"+  c #130B03",
"@  c #180301",
"#  c #0B160A",
"$  c #030D18",
"%  c #091519",
"&  c #141313",
"*  c #1C1B1C",
"=  c #1C1314",
"-  c #26080A",
";  c #380303",
":  c #241718",
">  c #281706",
",  c #23200C",
"<  c #37270A",
"1  c #232C11",
"2  c #35281D",
"3  c #000E2A",
"4  c #051728",
"5  c #011A37",
"6  c #101D29",
"7  c #142227",
"8  c #06283D",
"9  c #142A3A",
"0  c #252525",
"q  c #2C2C2C",
"w  c #343434",
"e  c #3C3C3C",
"r  c #382F2A",
"t  c #460000",
"y  c #550100",
"u  c #5D1216",
"i  c #6B090E",
"p  c #4D2A00",
"a  c #503208",
"s  c #683106",
"d  c #703205",
"f  c #444518",
"g  c #654A16",
"h  c #7D5719",
"j  c #52463F",
"k  c #6C5E21",
"l  c #716C24",
"z  c #001E42",
"x  c #082745",
"c  c #172E43",
"v  c #013349",
"b  c #0B3357",
"n  c #1A364B",
"m  c #0E3C66",
"M  c #002565",
"N  c #21435D",
"B  c #3C454F",
"V  c #2A5578",
"C  c #2A506C",
"Z  c #114472",
"A  c #434343",
"S  c #4D4D4D",
"D  c #535353",
"F  c #5A5959",
"G  c #524D4C",
"H  c #605952",
"J  c #6A696A",
"K  c #737474",
"L  c #7D7D7D",
"P  c #717378",
"I  c #686971",
"U  c #8A171B",
"Y  c #911B23",
"T  c #B61B22",
"R  c #92252E",
"E  c #AB2328",
"W  c #C62028",
"Q  c #CE2E36",
"!  c #FE353D",
"~  c #E73138",
"^  c #89460E",
"/  c #8C4F15",
"(  c #924F10",
")  c #905214",
"_  c #AF4F0C",
"`  c #946519",
"'  c #B97118",
"]  c #8D7F2A",
"[  c #917527",
"{  c #E35F0C",
"}  c #CE6915",
"|  c #DB6B14",
" . c #DA791D",
".. c #EF6F0F",
"X. c #FF3E48",
"o. c #FF414B",
"O. c #818229",
"+. c #9EA236",
"@. c #B5AB39",
"#. c #B8BB3D",
"$. c #F2841D",
"%. c #FD891C",
"&. c #FF9919",
"*. c #E4830A",
"=. c #C38221",
"-. c #C29024",
";. c #D59D26",
":. c #E78D25",
">. c #FF9424",
",. c #FF9F25",
"<. c #E89A27",
"1. c #C8AD3D",
"2. c #DDB83C",
"3. c #FFA327",
"4. c #FFA92C",
"5. c #FFB22A",
"6. c #EAA637",
"7. c #FAAE3A",
"8. c #ECB03E",
"9. c #FFB333",
"0. c #FFB833",
"q. c #FDB53D",
"w. c #FFBC3C",
"e. c #F2B03A",
"r. c #FFC435",
"t. c #CABC42",
"y. c #FDBC42",
"u. c #FFB440",
"i. c #FFC644",
"p. c #FFD34A",
"a. c #E2CE46",
"s. c #FCE54C",
"d. c #F8EB51",
"f. c #FFFF5D",
"g. c #FEF455",
"h. c #0B4B86",
"j. c #124E84",
"k. c #155895",
"l. c #0C589F",
"z. c #2C5D86",
"x. c #31648B",
"c. c #336896",
"v. c #377094",
"b. c #0B5AA5",
"n. c #186BB6",
"m. c #1D71BD",
"M. c #0B60B2",
"N. c #3874A9",
"B. c #3E7EB7",
"V. c #407CB1",
"C. c #1A75C9",
"Z. c #1A7CD5",
"A. c #2479C4",
"S. c #3F81B9",
"D. c #7C8988",
"F. c #1E82DD",
"G. c #3F85C5",
"H. c #1C83E1",
"J. c #1E8BF0",
"K. c #2794F8",
"L. c #298CE5",
"P. c #3FA9FF",
"I. c #448CCB",
"U. c #4184C0",
"Y. c #4A97D9",
"T. c #4D97CC",
"R. c #489CE8",
"E. c #4FA2EC",
"W. c #51A4EE",
"Q. c #54AAF7",
"!. c #59B6FF",
"~. c #41A1F7",
"^. c #61B8F8",
"/. c #51A3D9",
"(. c #5FC1FF",
"). c #61C6FF",
"_. c #70E5FF",
"`. c #828282",
"'. c #8A8A8A",
"]. c #828989",
"[. c #8E9393",
"{. c #939394",
"}. c #9C9C9C",
"|. c #989798",
" X c #9B9DA5",
".X c #9FA0A2",
"XX c #A3A3A3",
"oX c #ABABAB",
"OX c #ABA8A5",
"+X c #AEB1B9",
"@X c #B3B4B5",
"#X c #B7B8BD",
"$X c #ABAEB6",
"%X c #B6B9C1",
"&X c #BABCC3",
"*X c #BEC1C7",
"=X c #C2C3C5",
"-X c #C3C5CB",
";X c #CACBCB",
":X c #C7C9CF",
">X c #CACCD2",
",X c #D6D8DB",
"<X c #CED0D7",
"1X c #DCDDE2",
"2X c #DFE2E5",
"3X c #E3E4E5",
"4X c #EDEDED",
"5X c #E4E6EA",
"6X c #EBEDF5",
"7X c #E7EAF2",
"8X c #F2F2F2",
"9X c #FFFFFE",
"0X c #F3F5FB",
"qX c #EFF2FA",
"wX c None",
/* pixels */
"wXwXwXwXwXwXwXwXwXwXwXwXwXwXwXwXwXwXwXwXwXwXwXwXwXwXwXwXwXwXwXwXwXwXwXwXwXwXwXwXwXwXwXwXwXwXwXwXwXwXwXwXwXwXwXwXwXwXwXwXwXwXwXwX",
"wXwXwXwXwXwXwXwXwXwXwXwXwXwXwXwXwXwXwXwXwXwXwXwXwXwXwXwXwXwXwXwXwXwXwXwXwXwXwXwXwXwXwXwXwXwXwXwXwXwXwXwXwXwXwXwXwXwXwXwXwXwXwXwX",
"wXwXwXwXwXwXwXwXwXwXwXwXwXwXwXwXwXwXwXwXwXwXwXwXwXwXwXwXwXwXwXwXwXwXwXwXwXwXwXwXwXwXwXwXwXwXwXwXwXwXwXwXwXwXwXwXwXwXwXwXwXwXwXwX",
"wXwXwXwXwXwXwXwXwXwXwXwXwXwXwXwXwXwXwXwXwXwXwXwXwXwXwXwXwXwXwXwXwXwXwXwXwXwXwXwXwXwXwXwXwXwXwXwXwXwXwXwXwXwXwXwXwXwXwXwXwXwXwXwX",
"wXwXwXwXwXwXwXwXwXwXwXwXwXwXwXwXwXwXwXwXwXwXwXwXwXwXwXwXwXwX        wXwXwXwXwXwXwXwXwXwXwXwXwXwXwXwXwXwXwXwXwXwXwXwXwXwXwXwXwXwX",
"wXwXwXwXwXwXwXwXwXwXwXwXwXwXwXwXwXwXwXwXwXwXwXwXwXwXwXwX                  wXwXwXwXwXwXwXwXwXwXwXwXwXwXwXwXwXwXwXwXwXwXwXwXwXwXwX",
"wXwXwXwXwXwXwXwXwXwXwXwXwXwXwXwXwXwXwXwXwXwXwXwXwX    * F }.#X;X;X=XOXK w     wXwXwXwXwXwXwXwXwXwXwXwXwXwXwXwXwXwXwXwXwXwXwXwXwX",
"wXwXwXwXwXwXwXwXwXwXwXwXwXwXwXwXwXwXwXwXwXwXwXwX  0 }.8X9X9X9X9X9X9X9X9X9X#XS     wXwXwXwXwXwXwXwXwXwXwXwXwXwXwXwXwXwXwXwXwXwXwX",
"wXwXwXwXwXwXwXwXwXwXwXwXwXwXwXwXwXwXwXwXwXwX    K 9X9X9X0X8X4X4X8X8X4X8X9X9X9X@X*   wXwXwXwXwXwXwXwXwXwXwXwXwXwXwXwXwXwXwXwXwXwX",
"wXwXwXwXwXwXwXwXwXwXwXwXwXwXwXwXwXwXwXwXwX    oX9X9X4X8X8X8X8X8X8X8X8X8X8X4X8X9X5Xw   wXwXwXwXwXwXwXwXwXwXwXwXwXwXwXwXwXwXwXwXwX",
"wXwXwXwXwXwXwXwXwXwXwXwXwXwXwXwXwXwXwXwX    #X9X8X8X8X8X8X8X8X8X8X8X8X8X8X8X8X4X9X9Xq   wXwXwXwXwXwXwXwXwXwXwXwXwXwXwXwXwXwXwXwX",
"wXwXwXwXwXwXwXwXwXwXwXwXwXwXwXwXwXwXwXwX  }.9X8X8X8X4X4X8X8X8X4X4X8X8X8X8X4X8X8X4X9X4X&   wXwXwXwXwXwXwXwXwXwXwXwXwXwXwXwXwXwXwX",
"wXwXwXwXwXwXwXwXwXwXwXwXwXwXwXwXwXwXwX  G 9X9X4X8X9X9X9X9X9X9X9X9X9X9X9X9X9X9X9X8X4X9X@X  wXwXwXwXwXwXwXwXwXwXwXwXwXwXwXwXwXwXwX",
"wXwXwXwXwXwXwXwXwXwXwXwXwXwXwXwXwXwXwXX 5X9X5X9X9X3XoX'.].'.'.'.'.'.'.'.].'.OX1X9X9X8X9XA   wXwXwXwXwXwXwXwXwXwXwXwXwXwXwXwXwXwX",
"wXwXwXwXwXwXwXwXwXwXwXwXwXwXwXwXwXwX  J 9X8X9X8XK o                           X F 5X9X9X=X  wXwXwXwXwXwXwXwXwXwXwXwXwXwXwXwXwXwX",
"wXwXwXwXwXwXwXwXwXwXwXwXwXwXwXwXwXwX  ;X9X9X5Xq                                   * ,X9X9X0   wXwXwXwXwXwXwXwXwXwXwXwXwXwXwXwXwX",
"wXwXwXwXwXwXwXwXwXwXwXwXwXwXwXwXwX  * 9X9X9Xw                                       & 8X9XK   wXwXwXwXwXwXwXwXwXwXwXwXwXwXwXwXwX",
"wXwXwXwXwXwXwXwXwXwXwXwXwXwXwXwXwX  D 9X9XXX    0 K A o                   o e P q     `.9XOX  wXwXwXwXwXwXwXwXwXwXwXwXwXwXwXwXwX",
"wXwXwXwXwXwXwXwXwXwXwXwXwXwXwXwXwX  K 9X9XS     w 8X9X8X@X'.F w & e F '.@X8X9X8XA     w 9X=X  wXwXwXwXwXwXwXwXwXwXwXwXwXwXwXwXwX",
"wXwXwXwXwXwXwXwXwXwXwXwXwXwXwXwXwX  L 9X9Xe       X q K 9X9X9X9X4X9X9X9X9XL w O       0 9X;X  wXwXwXwXwXwXwXwXwXwXwXwXwXwXwXwXwX",
"wXwXwXwXwXwXwXwXwXwXwXwXwXwXwXwXwX  K 9X9XD           & 9X9X9XS S e 9X9X9X1           w 9X=X  wXwXwXwXwXwXwXwXwXwXwXwXwXwXwXwXwX",
"wXwXwXwXwXwXwXwXwXwXwXwXwXwXwXwXwX  D 9X9XoX            ].4X`.      K 4X{.X           [.9X X  wXwXwXwXwXwXwXwXwXwXwXwXwXwXwXwXwX",
"wXwXwXwXwXwXwXwXwXwXwXwXwXwXwXwXwX  q 0X9X9Xe             &           &             0 9X9XP   wXwXwXwXwXwXwXwXwXwXwXwXwXwXwXwXwX",
"wXwXwXwXwXwXwXwXwXwXwXwXwXwXwXwXwXwXO :X9X9X8Xw                                   0 5X9X7XD   wXwXwXwXwXwXwXwXwXwXwXwXwXwXwXwXwX",
"wXwXwXwXwXwXwXwXwXwXwXwXwXwXwXwXwXwX  |.qX6X9X9X`.*                           & J 8X9X<X<Xo wXwXwXwXwXwXwXwXwXwXwXwXwXwXwXwXwXwX",
"wXwXwXwXwXwXwXwXwXwXwXwXwXwXwXwXwXwX  e 6X*X9X9X9X8X#XXXXXXXXXXXXXXXXXXXXX}.#X3X9X9X=XqX{.  wXwXwXwXwXwXwXwXwXwXwXwXwXwXwXwXwXwX",
"wXwXwXwXwXwXwXwXwXwXwXwXwXwXwXwXwXwXwX  @X7X+X0X9X9X9X9X9X9X9X9X9X9X9X9X9X9X9X9X9X-X:X6X& wXwXwXwXwXwXwXwXwXwXwXwXwXwXwXwXwXwXwX",
"wXwXwXwXwXwXwXwXwXwXwXwXwXwXwXwX  wXwX  * 9X>X+X2X9X9X8X8X4X4X4X4X8X4X8X8X9X9X5X*X$X9XJ   wXwX  wXwXwXwXwXwXwXwXwXwXwXwXwXwXwXwX",
"wXwXwXwXwXwXwXwXwXwXwXwXwXwXwX    wXwXwX  F 9X-X$X-X3X8X9X9X9X9X9X9X9X9X8X5X<X#X+X9XXX  wXwXwX    wXwXwXwXwXwXwXwXwXwXwXwXwXwXwX",
"wXwXwXwXwXwXwXwXwXwXwXwXwXwX  + ,   wXwXwX  I 9X,X+X%X&X>X,X3X5X5X3X1X<X;X%X+X=X9X@X  wXwXwX  , +   wXwXwXwXwXwXwXwXwXwXwXwXwXwX",
"wXwXwXwXwXwXwXwXwXwXwXwXwX    t.k   wXwXwX    D 8X0X-X%X%X%X%X&X#X&X%X#X#X*X3X9X|.    wXwXwX  k t.    wXwXwXwXwXwXwXwXwXwXwXwXwX",
"wXwXwXwXwXwXwXwXwXwXwXwX    ] f.g   wX    l #.  4 @X8X0X1X:X=X&X=X=X-X,X7X0X>XB   O.l     wX  g f.]     wXwXwXwXwXwXwXwXwXwXwXwX",
"wXwXwXwXwXwXwXwXwXwXwXwX  k g.p.[       O.s.s.a.p   a }.>X5XqXqXqX0X6X,XOXj   @ @.g.s.O.      [ p.f.k   wXwXwXwXwXwXwXwXwXwXwXwX",
"wXwXwXwXwXwXwXwXwXwXwX  f f.:.q.1.    +.s.y.7.3.&.X z   . 2 G H H G r O X 4 $ ' r.e.u.s.+.    1.0.:.f.f   wXwXwXwXwXwXwXwXwXwXwX",
"wXwXwXwXwXwXwXwXwXwX  1 g.9.{ 0.1.# @.s.u.y. .%.d M J.l.h.z X     X 5 z.C ).m.; ..:.y.u.s.@.# 1.q.{ 9.g.1   wXwXwXwXwXwXwXwXwXwX",
"wXwXwXwXwXwXwXwXwX  # d.r._ ( 7.8.8.p.u.y.} $.&.X b.C.k.b Z.K.R.~.!._.x.9 Q.~.4 *.%.} q.u.i.8.8.7.( _ r.d.#   wXwXwXwXwXwXwXwXwX",
"wXwXwXwXwXwXwXwX  # d.0.d   s q.y.q.y.q.} $.4.a 3 n.n.Z.  $ k.T.C c x.% B.E.E.x p 4.$.} u.y.q.i.0.s   d 0.s.#   wXwXwXwXwXwXwXwX",
"wXwXwXwXwXwXwX  , 2.-.@     ^ 0.q.i.e.} >.<.<   x C.n.5 x Z   O N v.N   c.Q.E.n   < <.>.} e.i.q.0.^     @ -.2.,   wXwXwXwXwXwXwX",
"wXwXwXwXwXwX    h h     wX  ^ 9.p.6.} ,.=.+     x H.$ b H.b 5 n._./.n   $ W.Q.6 wX  + =.,.} 6.p.9.^   wX    h h O   wXwXwXwXwXwX",
"wXwXwXwXwXwX    .   wXwXwX  ^ w.6.| 3.`     wXwX$ Z.c x 4 8 C.K.x.O V I.N.(.S.  wXwX    ` 3.| 6.w.^   wXwXwX  .     wXwXwXwXwXwX",
"wXwXwXwXwX        wXwXwXwX  ) >.$.3.g     wXwXwX  m K.m j.J.F.b   C ).!.(.Y.% wXwXwXwX    g ,.$.>.)   wXwXwXwX        wXwXwXwXwX",
"wXwXwXwX      wXwXwXwXwXwX  / 5.:.<     wXwXwXwXwX  m Z.C.k.3 7 v.c $ 6 9   wXwXwXwXwXwX    < :.5./   wXwXwXwXwXwX      wXwXwXwX",
"wXwXwX    wXwXwXwXwXwXwXwX  ' ;.+   wXwXwXwXwXwXwXwX    $ $ C Q.!.E.T.c   wXwXwXwXwXwXwXwXwX  + ;.'   wXwXwXwXwXwXwXwX    wXwXwX",
"wXwX    wXwXwXwXwXwXwXwXwX  a o   wXwXwXwXwXwXwXwXwX  m b.G.^.Y.S.I.!.c.  wXwXwXwXwXwXwXwXwXwX  o a   wXwXwXwXwXwXwXwXwX    wXwX",
"wXwXwXwXwXwXwXwXwXwXwXwXwX      wXwXwXwXwXwXwXwXwXwX  j.C.I.Y.R.I.U.Q.z.  wXwXwXwXwXwXwXwXwXwXwX      wXwXwXwXwXwXwXwXwXwXwXwXwX",
"wXwXwXwXwXwXwXwXwXwXwXwXwX    wXwXwXwXwXwXwXwXwXwXwX  j.n.Y.V.c Y.I.Q.x.  wXwXwXwXwXwXwXwXwXwXwXwX    wXwXwXwXwXwXwXwXwXwXwXwXwX",
"wXwXwXwXwXwXwXwXwXwXwXwXwXwXwXwXwXwXwXwXwXwXwXwXwXwX  h.n.!.V   I.Y.W.c.  wXwXwXwXwXwXwXwXwXwXwXwXwXwXwXwXwXwXwXwXwXwXwXwXwXwXwX",
"wXwXwXwXwXwXwXwXwXwXwXwXwXwXwXwXwXwXwXwXwXwXwXwXwXwX  h.m.!.N   N.E.W.N.  wXwXwXwXwXwXwXwXwXwXwXwXwXwXwXwXwXwXwXwXwXwXwXwXwXwXwX",
"wXwXwXwXwXwXwXwXwXwXwXwXwXwXwXwXwXwXwXwXwXwXwXwXwXwX  h.A.!.7   V Q.W.N.  wXwXwXwXwXwXwXwXwXwXwXwXwXwXwXwXwXwXwXwXwXwXwXwXwXwXwX",
"wXwXwXwXwXwXwXwXwXwXwXwXwXwXwXwXwXwXwXwXwXwXwXwXwXwXX M.~.!.O wXn (.(.T.  wXwXwXwXwXwXwXwXwXwXwXwXwXwXwXwXwXwXwXwXwXwXwXwXwXwXwX",
"wXwXwXwXwXwXwXwXwXwXwXwXwXwXwXwXwXwXwXwXwXwXwXwXwXwX  5 v 8   wXO v v 8   wXwXwXwXwXwXwXwXwXwXwXwXwXwXwXwXwXwXwXwXwXwXwXwXwXwXwX",
"wXwXwXwXwXwXwXwXwXwXwXwXwXwXwXwXwXwXwXwXwXwXwXwXwXwX  ; y ;   wX  t y ;   wXwXwXwXwXwXwXwXwXwXwXwXwXwXwXwXwXwXwXwXwXwXwXwXwXwXwX",
"wXwXwXwXwXwXwXwXwXwXwXwXwXwXwXwXwXwXwXwXwXwXwXwXwXwXO R X.Y   wX  E o.Q   wXwXwXwXwXwXwXwXwXwXwXwXwXwXwXwXwXwXwXwXwXwXwXwXwXwXwX",
"wXwXwXwXwXwXwXwXwXwXwXwXwXwXwXwXwXwXwXwXwXwXwXwXwXwX  R X.; wXwX  u ! E   wXwXwXwXwXwXwXwXwXwXwXwXwXwXwXwXwXwXwXwXwXwXwXwXwXwXwX",
"wXwXwXwXwXwXwXwXwXwXwXwXwXwXwXwXwXwXwXwXwXwXwXwXwXwX  R Q . wXwXwX- ! E   wXwXwXwXwXwXwXwXwXwXwXwXwXwXwXwXwXwXwXwXwXwXwXwXwXwXwX",
"wXwXwXwXwXwXwXwXwXwXwXwXwXwXwXwXwXwXwXwXwXwXwXwX  . - Q W   wXwXwX  ! ~ - .   wXwXwXwXwXwXwXwXwXwXwXwXwXwXwXwXwXwXwXwXwXwXwXwXwX",
"wXwXwXwXwXwXwXwXwXwXwXwXwXwXwXwXwXwXwXwXwXwXwX  + i U Y t 7 @X{.XXO y W T U .   wXwXwXwXwXwXwXwXwXwXwXwXwXwXwXwXwXwXwXwXwXwXwXwX",
"wXwXwXwXwXwXwXwXwXwXwXwXwXwXwXwXwXwX`.`.`.].'.A * : = # % J |.K |.F % O = : : G '.`.`.`.`.wXwXwXwXwXwXwXwXwXwXwXwXwXwXwXwXwXwXwX",
"wXwXwXwXwXwXwXwXwXwXwXwXwXwXwXwXwXwXwXwXL L `.}.[.D.D.].{.{.L `.L {.[.].D.D.{..X`.L `.wXwXwXwXwXwXwXwXwXwXwXwXwXwXwXwXwXwXwXwXwX",
"wXwXwXwXwXwXwXwXwXwXwXwXwXwXwXwXwXwXwXwXwXwXwXwXwXwXwX{.'.`.L `.L `.[.{.wXwXwXwXwXwXwXwXwXwXwXwXwXwXwXwXwXwXwXwXwXwXwXwXwXwXwXwX",
"wXwXwXwXwXwXwXwXwXwXwXwXwXwXwXwXwXwXwXwXwXwXwXwXwXwXwXwXwXwXwXwXwXwXwXwXwXwXwXwXwXwXwXwXwXwXwXwXwXwXwXwXwXwXwXwXwXwXwXwXwXwXwXwX",
"wXwXwXwXwXwXwXwXwXwXwXwXwXwXwXwXwXwXwXwXwXwXwXwXwXwXwXwXwXwXwXwXwXwXwXwXwXwXwXwXwXwXwXwXwXwXwXwXwXwXwXwXwXwXwXwXwXwXwXwXwXwXwXwX",
"wXwXwXwXwXwXwXwXwXwXwXwXwXwXwXwXwXwXwXwXwXwXwXwXwXwXwXwXwXwXwXwXwXwXwXwXwXwXwXwXwXwXwXwXwXwXwXwXwXwXwXwXwXwXwXwXwXwXwXwXwXwXwXwX",
"wXwXwXwXwXwXwXwXwXwXwXwXwXwXwXwXwXwXwXwXwXwXwXwXwXwXwXwXwXwXwXwXwXwXwXwXwXwXwXwXwXwXwXwXwXwXwXwXwXwXwXwXwXwXwXwXwXwXwXwXwXwXwXwX"
};
