/* XPM */
static char *f4eef2ed8f7143fbac207a2ce5ec0a12[] = {
/* columns rows colors chars-per-pixel */
"32 32 168 2 ",
"   c #010000",
".  c #080602",
"X  c #020E04",
"o  c #0D0903",
"O  c #070709",
"+  c #090909",
"@  c #170000",
"#  c #140E03",
"$  c #0F1100",
"%  c #171800",
"&  c #060712",
"*  c #131313",
"=  c #2C0000",
"-  c #220B02",
";  c #230709",
":  c #3C1300",
">  c #22171C",
",  c #372406",
"<  c #061829",
"1  c #191320",
"2  c #1C1D29",
"3  c #011930",
"4  c #162E38",
"5  c #262525",
"6  c gray16",
"7  c #3E2D3A",
"8  c #39393A",
"9  c #4C090B",
"0  c #520A0E",
"q  c #5F0B0B",
"w  c #5C0F12",
"e  c #6D1515",
"r  c #4E2200",
"t  c #5E2B00",
"y  c #463A14",
"u  c #533B11",
"i  c #493B3B",
"p  c #564A1A",
"a  c #704D12",
"s  c #61581D",
"d  c #405028",
"f  c #4C5C3A",
"g  c #757C2C",
"h  c #001745",
"j  c #012243",
"k  c #09374D",
"l  c #1C3445",
"z  c #00335F",
"x  c #0B375F",
"c  c #253C53",
"v  c #0C3F73",
"b  c #16405F",
"n  c #3D4451",
"m  c #13497A",
"M  c #1F537E",
"N  c #254965",
"B  c #3A4F61",
"V  c #2A5779",
"C  c gray27",
"Z  c #4B4B4B",
"A  c #51514F",
"S  c #4E5453",
"D  c #515151",
"F  c #5A5B5B",
"G  c #5F6A69",
"H  c #646463",
"J  c #6D6D6C",
"K  c #7C7C7C",
"L  c #931119",
"P  c #BE1818",
"I  c #901F25",
"U  c #E01E1E",
"Y  c #D91A21",
"T  c #9C661D",
"R  c #847F2C",
"E  c #BE7F26",
"W  c #F77500",
"Q  c #827A7A",
"!  c #9E9D38",
"~  c #B89735",
"^  c #B89835",
"/  c #DA8B1F",
"(  c #FF8500",
")  c #E3821A",
"_  c #FF8C19",
"`  c #DB8B20",
"'  c #DC9325",
"]  c #EB8122",
"[  c #CCA330",
"{  c #F2B727",
"}  c #FFBA3B",
"|  c #FFC036",
" . c #FFCB31",
".. c #96847B",
"X. c #9A8779",
"o. c #D1C747",
"O. c #D1C847",
"+. c #FFC943",
"@. c #FFD040",
"#. c #F3E853",
"$. c #FDED54",
"%. c #FFFF57",
"&. c #003F8A",
"*. c #0C4A83",
"=. c #125087",
"-. c #13548D",
";. c #326881",
":. c #33678D",
">. c #346A92",
",. c #0047AE",
"<. c #0B63AF",
"1. c #1669B1",
"2. c #2E7BAB",
"3. c #3B78A2",
"4. c #426683",
"5. c #2378C1",
"6. c #847C80",
"7. c #6A8584",
"8. c #6B8C8B",
"9. c #718786",
"0. c #4182BD",
"q. c #3F9FEF",
"w. c #399CF7",
"e. c #2DA4F7",
"r. c #39AEF4",
"t. c #448BC3",
"y. c #4F8FC4",
"u. c #4F90CC",
"i. c #458CD0",
"p. c #4891D7",
"a. c #4C9BD0",
"s. c #4B98DD",
"d. c #54ACE9",
"f. c #58B4FF",
"g. c #848585",
"h. c #818D8D",
"j. c #8B8C8D",
"k. c #959595",
"l. c #9096A5",
"z. c #A7A7A7",
"x. c #A2A4A9",
"c. c #ABABAB",
"v. c #A3A5B2",
"b. c #B6B6B6",
"n. c #BCBCBC",
"m. c #ABAEC6",
"M. c #BBC9C8",
"N. c #C3C3C5",
"B. c #CBCBCB",
"V. c #C4C7DC",
"C. c #CFD0D1",
"Z. c #D7D7D7",
"A. c #D6D7DA",
"S. c #DBDBDC",
"D. c #E4DCDB",
"F. c #E1E0DF",
"G. c #E9E0DC",
"H. c #DEE1EB",
"J. c #E3E4E4",
"K. c #E3E5ED",
"L. c #E7E8E9",
"P. c #EAEBEA",
"I. c #EFF0EF",
"U. c #E9EBF1",
"Y. c #ECF0F7",
"T. c gray96",
"R. c #FFFFFF",
"E. c None",
/* pixels */
"E.E.E.E.E.E.E.E.E.E.E.E.E.E.E.E.E.E.E.E.E.E.E.E.E.E.E.E.E.E.E.E.",
"E.E.E.E.E.E.E.E.E.E.E.E.E.E.E.E.E.E.E.E.E.E.E.E.E.E.E.E.E.E.E.E.",
"E.E.E.E.E.E.E.E.E.E.E.E.E.E.        E.E.E.E.E.E.E.E.E.E.E.E.E.E.",
"E.E.E.E.E.E.E.E.E.E.E.E.O J n.D.J.N.g.* E.E.E.E.E.E.E.E.E.E.E.E.",
"E.E.E.E.E.E.E.E.E.E.E.6 J.R.R.R.R.R.R.T.Z E.E.E.E.E.E.E.E.E.E.E.",
"E.E.E.E.E.E.E.E.E.E.6 I.R.R.R.R.R.R.R.R.R.Z E.E.E.E.E.E.E.E.E.E.",
"E.E.E.E.E.E.E.E.E.  N.R.T.N.b.n.n.b.b.A.R.L.* E.E.E.E.E.E.E.E.E.",
"E.E.E.E.E.E.E.E.E.D R.B.*               F R.g.E.E.E.E.E.E.E.E.E.",
"E.E.E.E.E.E.E.E.E.c.R.  5 C         * A   K S.E.E.E.E.E.E.E.E.E.",
"E.E.E.E.E.E.E.E.E.J.c.  Z n.J.z.g.S.A.j.O * A.* E.E.E.E.E.E.E.E.",
"E.E.E.E.E.E.E.E.E.C.Z.    + T.z.8 R.g.    D F.O E.E.E.E.E.E.E.E.",
"E.E.E.E.E.E.E.E.E.j.R.H                   L.N.E.E.E.E.E.E.E.E.E.",
"E.E.E.E.E.E.E.E.E.8 R.R.c.D C D F Z C J S.R.F E.E.E.E.E.E.E.E.E.",
"E.E.E.E.E.E.E.E.E.E.x.R.R.R.R.R.R.R.R.R.R.N.  E.E.E.E.E.E.E.E.E.",
"E.E.E.E.E.E.E.. o E.& m.Y.A.J.I.I.L.S.U.V.2 E.o . E.E.E.E.E.E.E.",
"E.E.E.E.E.E.  ! p E.% d l.G.K.H.H.K.D.v.f $ E.p !   E.E.E.E.E.E.",
"E.E.E.E.E.E.R %.y X #. .: c g.X...6.B - { $.X y %.R E.E.E.E.E.E.",
"E.E.E.E.E.g | ] ~ o.+.( n ,.h v b k <.4.W +.o.~ ] | g E.E.E.E.E.",
"E.E.E.E.s [ @ T $.} _ t *.1.j M a.4 0.5.r _ } $.T @ [ s E.E.E.E.",
"E.E.E.. u E.  E @.) , E.=.*.x -.;.N d.:.E., ) @.E   E.u . E.E.E.",
"E.E.    E.E.  ' ` # E.E.< -.*.m l 3.>.E.E.E.# / '   E.E.    E.E.",
"E.  E.E.E.E.o a # E.E.E.E.3 m y.f.V E.E.E.E.E.# a o E.E.E.E.  E.",
"E.E.E.E.E.E.    E.E.E.E.E.j w.u.s.t.E.E.E.E.E.E.    E.E.E.E.E.E.",
"E.E.E.E.E.E.E.E.E.E.E.E.E.j q.c i.p.E.E.E.E.E.E.E.E.E.E.E.E.E.E.",
"E.E.E.E.E.E.E.E.E.E.E.E.E.z e.o 2.r.E.E.E.E.E.E.E.E.E.E.E.E.E.E.",
"E.E.E.E.E.E.E.E.E.E.E.E.E.1 7 E.> 7 E.E.E.E.E.E.E.E.E.E.E.E.E.E.",
"E.E.E.E.E.E.E.E.E.E.E.E.E.e P E.q U E.E.E.E.E.E.E.E.E.E.E.E.E.E.",
"E.E.E.E.E.E.E.E.E.E.E.E.E.L I E.E.Y = E.E.E.E.E.E.E.E.E.E.E.E.E.",
"E.E.E.E.E.E.E.E.E.K k.S ; 0 i M.G 9 w 6 g.g.E.E.E.E.E.E.E.E.E.E.",
"E.E.E.E.E.E.E.E.E.E.K j.j.7.h.Q j.8.9.k.g.E.E.E.E.E.E.E.E.E.E.E.",
"E.E.E.E.E.E.E.E.E.E.E.E.E.E.E.E.E.E.E.E.E.E.E.E.E.E.E.E.E.E.E.E.",
"E.E.E.E.E.E.E.E.E.E.E.E.E.E.E.E.E.E.E.E.E.E.E.E.E.E.E.E.E.E.E.E."
};
